PathFileType	4	(X/Y/Z)	C:/Users/opensim2020/Desktop/walking_exp_matlab/subject02_walking08_straight_04.trc																																																																																																																									
DataRate	CameraRate	NumFrames	NumMarkers	Units	OrigDataRate	OrigDataStartFrame	OrigNumFrames																																																																																																																					
100	100	7	41	mm	100	2987	241																																																																																																																					
Frame#	Time	LFHD			RFHD			LBHD			RBHD			C7			T10			CLAV			STRN			RBAK			LSHO			LUPA			LELB			LFRM			LWRA			LWRB			LFIN			RSHO			RUPA			RELB			RFRM			RWRA			RWRB			RFIN			LASI			RASI			LPSI			RPSI			LTHI			LKNE			LTIB			LANK			LHEE			LTOE			RTHI			RKNE			RTIB			RANK			RHEE			RTOE			*39			*40		
		X1	Y1	Z1	X2	Y2	Z2	X3	Y3	Z3	X4	Y4	Z4	X5	Y5	Z5	X6	Y6	Z6	X7	Y7	Z7	X8	Y8	Z8	X9	Y9	Z9	X10	Y10	Z10	X11	Y11	Z11	X12	Y12	Z12	X13	Y13	Z13	X14	Y14	Z14	X15	Y15	Z15	X16	Y16	Z16	X17	Y17	Z17	X18	Y18	Z18	X19	Y19	Z19	X20	Y20	Z20	X21	Y21	Z21	X22	Y22	Z22	X23	Y23	Z23	X24	Y24	Z24	X25	Y25	Z25	X26	Y26	Z26	X27	Y27	Z27	X28	Y28	Z28	X29	Y29	Z29	X30	Y30	Z30	X31	Y31	Z31	X32	Y32	Z32	X33	Y33	Z33	X34	Y34	Z34	X35	Y35	Z35	X36	Y36	Z36	X37	Y37	Z37	X38	Y38	Z38	X39	Y39	Z39	X40	Y40	Z40	X41	Y41	Z41
																																																																																																																												
1	0	-992.94098	1746.37207	-1509.98706	-1003.17218	1723.68677	-1368.36816	-1122.42432	1671.72253	-1529.54773	-1144.76404	1648.36792	-1390.02673	-1185.42542	1535.15112	-1450.86633	-1250.56763	1261.24219	-1432.87268	-1051.00684	1458.92993	-1473.77625	-1006.63196	1285.36353	-1469.42114	-1245.28992	1363.89514	-1378.41516	-1131.75732	1506.77148	-1633.23596	-1111.55042	1322.77649	-1740.17224	-1066.38757	1193.48755	-1781.62769	-992.55444	1084.70447	-1809.17944	-879.78326	1006.6543	-1794.27197	-922.68542	985.56256	-1824.43225	-872.39435	946.46661	-1839.78577	-1091.55212	1497.8114	-1272.14917	-1127.77258	1308.43433	-1188.00037	-1126.23962	1160.35596	-1177.5188	-1100.84692	1041.96326	-1163.32886	-1056.77246	915.52582	-1187.46924	-1102.59436	911.45294	-1153.9231	-1065.26343	848.15918	-1155.25854	-1045.83032	991.53131	-1594.23035	-1009.8075	984.25928	-1339.54651	-1241.03271	1041.59216	-1481.63965	-1230.1582	1040.08691	-1367.80017	-1146.5968	685.08325	-1624.7583	-1199.81091	487.81973	-1590.09595	-1277.67969	308.64822	-1585.56262	-1294.88147	84.44991	-1547.5437	-1330.65637	59.31997	-1495.26038	-1140.32129	38.37587	-1562.66345	-1007.31891	690.93402	-1249.36035	-941.53583	495.00336	-1282.84351	-975.36481	310.8931	-1272.71643	-983.65973	117.75803	-1302.71692	-1010.03088	59.61301	-1361.23645	-833.51257	68.23441	-1283.96704	-1100.49805	1808.6886	-1424.65259	-2845.95825	1034.17285	3357.36621
2	0.01	-983.84973	1745.00037	-1510.14966	-994.77301	1722.15747	-1368.73193	-1113.70642	1670.98535	-1530.32385	-1136.46362	1647.4519	-1390.74902	-1177.25879	1534.26758	-1452.04871	-1242.87683	1260.55139	-1434.15051	-1043.00391	1457.76636	-1474.44983	-998.74915	1284.19739	-1470.08582	-1235.37195	1362.3573	-1378.1322	-1122.95679	1506.18762	-1634.10571	-1101.66321	1322.82678	-1741.60901	-1055.35193	1193.90796	-1783.32092	-980.29279	1086.06445	-1810.95959	-866.86554	1009.11267	-1795.65356	-909.2887	987.44672	-1825.81848	-858.50482	949.32703	-1841.43298	-1084.21399	1496.81934	-1273.08838	-1121.70508	1307.68335	-1188.97119	-1120.92358	1159.66467	-1178.255	-1096.02905	1041.17529	-1163.9292	-1051.99744	914.67822	-1187.82715	-1098.04028	910.59015	-1154.2749	-1061.04321	847.23761	-1155.43408	-1038.33411	990.61005	-1594.48401	-1002.55109	983.32831	-1340.08008	-1233.5481	1040.84167	-1482.54675	-1222.87512	1039.47876	-1368.63696	-1141.35498	683.94513	-1624.83228	-1196.29858	487.4585	-1590.25659	-1275.6366	308.87787	-1585.80334	-1294.58801	84.88587	-1547.54858	-1330.7572	60.11419	-1495.37756	-1140.31592	38.39409	-1562.67896	-1001.28473	689.883	-1249.75317	-934.51947	493.73666	-1284.7627	-959.91791	308.14618	-1275.08545	-959.63916	114.92473	-1305.47754	-983.05817	55.86932	-1364.09253	-806.86902	71.55608	-1287.24902	-1091.58301	1807.72791	-1425.24683	-2845.19995	1033.87952	3360.30249
3	0.02	-974.89526	1743.68542	-1510.32263	-986.22046	1720.52661	-1368.73254	-1104.93909	1670.13892	-1530.97339	-1128.17944	1646.50452	-1391.4679	-1169.02783	1533.30237	-1453.14209	-1235.10693	1259.65601	-1435.26111	-1034.77795	1456.61621	-1475.10803	-990.74347	1282.80518	-1470.32092	-1230.32581	1362.35901	-1381.56018	-1114.08008	1505.32849	-1634.83203	-1091.85364	1322.65454	-1742.85706	-1044.79785	1194.42334	-1785.29102	-968.37775	1087.11011	-1812.49512	-854.41089	1011.16687	-1796.65369	-896.49725	989.57037	-1827.65942	-845.07574	951.82922	-1842.81433	-1076.78491	1495.63452	-1273.89233	-1115.41833	1306.73352	-1189.91443	-1115.3573	1158.73694	-1179.02673	-1090.54712	1040.06421	-1164.5415	-1047.28699	913.17975	-1188.26294	-1093.57507	909.59167	-1154.93701	-1056.62097	846.15277	-1155.505	-1030.84619	989.56226	-1594.59814	-995.27991	982.14917	-1340.62769	-1226.13989	1040.08301	-1483.39197	-1215.46118	1038.72021	-1369.39673	-1136.34668	683.40955	-1625.56116	-1192.80737	487.09482	-1590.36865	-1273.40063	309.14755	-1585.83606	-1294.31714	85.3455	-1547.57141	-1330.46484	60.44157	-1495.11096	-1140.28479	38.34711	-1562.67615	-995.47412	688.10291	-1250.33044	-927.80585	492.20386	-1286.58948	-944.90454	305.83191	-1277.45923	-935.15125	112.4774	-1308.60571	-956.70129	53.14346	-1366.77319	-781.03455	75.20554	-1290.13855	-1082.61426	1806.67529	-1425.68713	-2845.22217	1033.98267	3360.42212
4	0.03	-965.89111	1742.28577	-1510.35474	-977.59863	1719.14233	-1368.9209	-1096.10229	1669.21643	-1531.45325	-1119.83032	1645.43481	-1392.04871	-1160.6991	1532.28967	-1454.04944	-1227.30762	1258.81934	-1436.42737	-1026.45178	1455.17798	-1475.25012	-982.77789	1281.59082	-1470.87109	-1221.95483	1361.15869	-1382.3219	-1105.22144	1504.44226	-1635.53723	-1082.46753	1322.45691	-1744.19995	-1034.39331	1194.4054	-1786.68408	-956.90192	1087.81238	-1813.8042	-842.1991	1012.94836	-1797.46069	-884.03821	990.99121	-1828.80872	-832.09906	953.8479	-1843.78979	-1069.20557	1494.3363	-1274.50293	-1109.1825	1305.81262	-1190.76294	-1109.60767	1157.75476	-1179.69629	-1085.66882	1038.82544	-1165.04736	-1042.16125	911.89191	-1188.00867	-1088.82092	908.46484	-1155.35083	-1052.05164	844.88245	-1155.52246	-1023.03442	988.21576	-1594.52844	-987.69635	980.72858	-1340.87146	-1218.55737	1039.20544	-1484.04675	-1207.89429	1037.87305	-1370.00623	-1131.13428	682.6438	-1625.90686	-1189.33398	486.78329	-1590.58777	-1271.27246	309.26636	-1585.73169	-1294.10144	85.86768	-1547.56519	-1330.40906	61.18094	-1495.08936	-1140.24866	38.31458	-1562.70142	-989.72015	686.16211	-1250.6604	-921.04614	490.70428	-1288.59656	-930.08502	303.68985	-1279.53125	-912.00488	110.89656	-1310.87634	-930.99249	51.09241	-1369.25769	-756.28552	79.55824	-1292.71619	-1073.52124	1805.42786	-1425.69348	-2845.27124	1033.89575	3360.35547
5	0.04	-957.01416	1740.9259	-1510.45093	-969.35779	1717.4552	-1368.96899	-1087.24121	1668.1936	-1531.84424	-1111.35071	1644.23987	-1392.49426	-1152.28833	1531.17554	-1454.87793	-1219.33521	1257.81189	-1437.44141	-1018.15582	1453.99805	-1475.87366	-974.58856	1280.10193	-1470.88184	-1211.89819	1359.2218	-1381.84778	-1096.28601	1503.4408	-1636.08557	-1072.97693	1321.86548	-1745.12732	-1024.21521	1194.01929	-1787.78455	-945.7807	1088.17334	-1814.80762	-830.58118	1014.19952	-1798.09375	-872.0459	992.00238	-1829.62695	-819.60614	955.32324	-1844.46338	-1061.53967	1492.96326	-1275.00623	-1101.9303	1304.50562	-1191.00049	-1103.73462	1156.67603	-1180.29834	-1080.66089	1037.84094	-1165.16162	-1036.98206	910.44293	-1187.94629	-1083.3407	907.22113	-1155.59851	-1047.27576	843.58093	-1155.51721	-1015.5932	986.99994	-1594.85718	-979.79578	979.61908	-1341.26904	-1210.87854	1038.23145	-1484.57434	-1200.22827	1036.85339	-1370.43994	-1125.84924	681.81097	-1626.1604	-1185.6864	486.48984	-1590.64795	-1269.30298	309.85562	-1585.92896	-1293.66296	86.24674	-1547.46973	-1330.32507	61.98435	-1495.12512	-1140.21326	38.18384	-1562.70093	-984.19855	684.29218	-1251.15417	-914.33655	488.95386	-1290.5957	-915.56244	302.00067	-1281.46057	-889.42548	109.79082	-1313.10266	-906.52502	49.80332	-1371.26245	-732.5542	84.23256	-1295.05017	-1064.71729	1804.34265	-1426.06592	-2845.80127	1034.21204	3357.50024
6	0.05	-947.87134	1739.48071	-1510.26111	-960.53625	1715.88147	-1368.83044	-1078.28711	1667.13049	-1532.08521	-1102.94019	1643.09302	-1392.89697	-1143.77795	1530.00146	-1455.49414	-1211.276	1256.74744	-1438.30542	-1009.73401	1452.64758	-1476.09424	-966.33264	1278.88831	-1471.2998	-1206.72583	1359.20593	-1385.05823	-1087.37195	1502.42664	-1636.71411	-1063.57397	1321.03894	-1745.85791	-1014.44855	1193.54163	-1788.82983	-935.06628	1088.11511	-1815.61768	-819.36719	1015.14294	-1798.44922	-860.56097	992.58398	-1830.27258	-807.75073	956.55713	-1845.00134	-1053.74487	1491.46191	-1275.32776	-1095.53284	1303.25671	-1191.58032	-1097.5918	1155.35767	-1180.58813	-1074.69873	1036.30017	-1165.58484	-1031.57935	908.73639	-1187.8302	-1078.23462	905.88324	-1155.72754	-1042.55591	842.2489	-1155.52783	-1007.83185	985.5174	-1594.93311	-972.09906	977.99548	-1341.39563	-1203.06287	1037.25146	-1484.91846	-1192.40698	1035.69836	-1370.79297	-1120.44031	680.84973	-1626.23267	-1181.94104	486.17328	-1590.76038	-1267.41516	310.41699	-1586.09399	-1293.5343	86.9434	-1547.60571	-1330.18677	62.73373	-1495.10999	-1140.21387	38.22614	-1562.76855	-978.64484	681.92432	-1251.69666	-907.8927	487.53528	-1292.58679	-901.77863	300.63263	-1283.00378	-868.41724	109.54167	-1314.35962	-883.05756	49.04782	-1372.86804	-710.04578	89.05289	-1297.19739	-1055.71143	1803.10303	-1426.05164	NaN	NaN	NaN
7	0.06	-938.63544	1737.96118	-1509.76501	-951.91705	1713.95435	-1368.37537	-1069.27954	1666.052	-1532.21692	-1094.31067	1641.81848	-1393.08032	-1135.21619	1528.82031	-1456.06787	-1203.11646	1255.67822	-1439.01294	-1001.24243	1451.20081	-1476.14294	-957.95068	1277.29993	-1471.00916	-1198.47156	1357.97314	-1385.89612	-1078.19031	1501.14978	-1636.89905	-1054.34802	1319.98401	-1746.35693	-1004.8869	1192.66296	-1789.52991	-924.7439	1087.72717	-1816.15881	-808.61871	1015.55798	-1798.71777	-849.39893	992.57391	-1830.38562	-796.4248	957.21863	-1845.2002	-1045.91016	1489.8689	-1275.49304	-1088.71448	1301.96313	-1191.81824	-1091.30298	1153.99463	-1180.927	-1068.7085	1034.69299	-1165.27551	-1026.27881	907.36877	-1187.7229	-1073.44641	904.53571	-1155.82874	-1037.49524	840.61859	-1155.12036	-1000.09357	983.91895	-1595.19934	-964.42578	976.45703	-1341.78345	-1195.17139	1036.1792	-1484.98999	-1184.45374	1034.47034	-1370.81592	-1115.0708	680.31842	-1626.59106	-1178.01733	485.90518	-1590.84253	-1264.87146	310.73975	-1585.82703	-1293.20581	87.66431	-1547.7085	-1330.21375	63.77969	-1495.30151	-1140.19995	38.20358	-1562.82605	-972.95776	679.66302	-1252.20911	-901.12683	485.81595	-1294.26685	-888.53326	299.54727	-1284.63562	-848.27185	109.59901	-1315.76184	-860.80646	48.73024	-1374.16699	-688.6651	93.95764	-1299.20447	-1046.37817	1801.58044	-1425.55591	-2845.62939	1034.07568	3357.29321
